<svg width="160" height="149" viewBox="0 0 160 149" fill="none" xmlns="http://www.w3.org/2000/svg">
<path d="M140.606 69.7338C143.809 106.173 110.718 142.982 73.8483 142.982C36.9791 142.982 1.35893 104.508 7.09063 69.7338C10.968 27.1906 36.9791 0 73.8483 0C110.718 0 140.606 29.2799 140.606 69.7338Z" fill="#CFE48F"/>
<path d="M156.405 52.8985C156.948 53.1159 156.708 53.9192 156.127 53.85C130.627 50.8116 91.6191 61.3513 86.4941 62.7809C86.1964 62.8639 85.8996 62.6598 85.8642 62.3528L83.4793 41.6472C83.4443 41.3433 83.684 41.0799 83.9896 41.0927C89.4706 41.3222 132.685 43.4063 156.405 52.8985Z" fill="#FF7733"/>
<path fill-rule="evenodd" clip-rule="evenodd" d="M0 82.1201C4.7424 78.8768 10.0331 75.6695 15.9112 72.518C15.9112 37.8907 34.5091 19.383 64.3602 23.5621C87.0471 28.3383 92.9272 41.7091 92.9272 92.8167C92.9272 115.073 90.3403 133.795 83.5133 148.594C82.3527 148.65 81.1883 148.678 80.0207 148.678C41.1093 148.678 3.3657 115.875 0 82.1201Z" fill="#F85A3E"/>
<circle cx="60.1076" cy="54.3269" r="7.16427" fill="#96A13A"/>
</svg>
