<svg width="238" height="219" viewBox="0 0 238 219" fill="none" xmlns="http://www.w3.org/2000/svg">
<path d="M179.606 69.7338C182.809 106.173 149.717 142.982 112.848 142.982C75.9788 142.982 40.3587 104.508 46.0904 69.7338C49.9678 27.1906 75.9788 0 112.848 0C149.717 0 179.606 29.2799 179.606 69.7338Z" fill="#CFE48F"/>
<path d="M195.405 52.8985C195.948 53.1159 195.708 53.9192 195.127 53.85C169.627 50.8116 130.619 61.3513 125.494 62.7809C125.196 62.8639 124.9 62.6598 124.864 62.3528L122.479 41.6472C122.444 41.3433 122.684 41.0799 122.99 41.0927C128.471 41.3222 171.685 43.4063 195.405 52.8985Z" fill="#FF7733"/>
<path fill-rule="evenodd" clip-rule="evenodd" d="M39 82.1201C43.7424 78.8768 49.0331 75.6695 54.9112 72.518C54.9112 37.8907 73.5091 19.383 103.36 23.5621C126.047 28.3383 131.927 41.7091 131.927 92.8167C131.927 115.073 129.34 133.795 122.513 148.594C121.353 148.65 120.188 148.678 119.021 148.678C80.1093 148.678 42.3657 115.875 39 82.1201Z" fill="#F85A3E"/>
<circle cx="99.1076" cy="54.3269" r="7.16427" fill="#96A13A"/>
<path d="M0 175.087H5.2711V194.541L24.7253 175.087H32.1972L15.5959 191.172L32.6591 215H25.6219L11.6562 194.976L5.2711 201.089V215H0V175.087Z" fill="#3F412F"/>
<path d="M32.0113 186.037H36.9836V215H32.0113V186.037ZM32.0113 175.087H36.9836V180.63H32.0113V175.087Z" fill="#3F412F"/>
<path d="M42.2047 185.901L47.8018 208.833L53.4805 185.901H58.969L64.6748 208.697L70.6251 185.901H75.5159L67.0658 215H61.9849L56.0617 192.476L50.3287 215H45.2478L36.8521 185.901H42.2047Z" fill="#3F412F"/>
<path d="M75.7104 186.037H80.6826V215H75.7104V186.037ZM75.7104 175.087H80.6826V180.63H75.7104V175.087Z" fill="#3F412F"/>
<path d="M120.818 214.892L118.101 218.179L111.933 213.479C110.448 214.294 108.836 214.946 107.097 215.435C105.376 215.924 103.492 216.169 101.445 216.169C95.2504 216.169 90.3959 214.14 86.8819 210.083C83.7844 206.134 82.2357 201.189 82.2357 195.247C82.2357 189.85 83.5761 185.231 86.257 181.39C89.6986 176.463 94.7885 174 101.527 174C108.573 174 113.79 176.264 117.177 180.793C119.822 184.325 121.144 188.844 121.144 194.351C121.144 196.923 120.827 199.395 120.193 201.768C119.233 205.391 117.612 208.344 115.33 210.626L120.818 214.892ZM102.097 211.332C103.22 211.332 104.271 211.26 105.249 211.115C106.227 210.952 107.079 210.644 107.803 210.191L103.429 206.768L106.146 203.426L111.363 207.474C113.011 205.59 114.125 203.48 114.705 201.143C115.302 198.807 115.601 196.57 115.601 194.432C115.601 189.741 114.369 185.964 111.906 183.102C109.461 180.24 106.11 178.809 101.853 178.809C97.5418 178.809 94.1274 180.186 91.6096 182.939C89.0918 185.674 87.8328 189.895 87.8328 195.601C87.8328 200.401 89.0374 204.223 91.4465 207.067C93.8738 209.911 97.4241 211.332 102.097 211.332Z" fill="#3F412F"/>
<path d="M127.398 185.901V205.219C127.398 206.704 127.633 207.918 128.104 208.86C128.974 210.599 130.595 211.468 132.968 211.468C136.373 211.468 138.692 209.947 139.923 206.904C140.593 205.273 140.929 203.036 140.929 200.192V185.901H145.819V215H141.2L141.255 210.708C140.621 211.812 139.833 212.745 138.891 213.506C137.025 215.028 134.761 215.788 132.098 215.788C127.95 215.788 125.124 214.403 123.621 211.631C122.806 210.146 122.398 208.163 122.398 205.681V185.901H127.398Z" fill="#3F412F"/>
<path d="M149.03 186.037H154.002V215H149.03V186.037ZM149.03 175.087H154.002V180.63H149.03V175.087Z" fill="#3F412F"/>
<path d="M154.794 211.142L172.048 190.275H156.071V185.901H178.623V189.895L161.478 210.626H179.139V215H154.794V211.142Z" fill="#3F412F"/>
<path d="M181.507 209.077H187.186V215H181.507V209.077Z" fill="#3F412F"/>
<path d="M195.192 200.029C196.831 200.029 198.163 200.428 199.186 201.225C200.219 202.022 200.839 203.394 201.047 205.341H198.67C198.525 204.445 198.194 203.702 197.678 203.113C197.162 202.516 196.333 202.217 195.192 202.217C193.634 202.217 192.52 202.977 191.85 204.499C191.415 205.486 191.198 206.704 191.198 208.153C191.198 209.612 191.506 210.839 192.122 211.835C192.738 212.831 193.707 213.329 195.029 213.329C196.043 213.329 196.845 213.022 197.434 212.406C198.031 211.781 198.444 210.929 198.67 209.852H201.047C200.776 211.781 200.096 213.194 199.01 214.09C197.923 214.978 196.533 215.422 194.839 215.422C192.937 215.422 191.42 214.729 190.288 213.343C189.156 211.948 188.59 210.209 188.59 208.126C188.59 205.572 189.21 203.584 190.451 202.162C191.692 200.74 193.272 200.029 195.192 200.029Z" fill="#3F412F"/>
<path d="M208.988 213.425C210.609 213.425 211.719 212.813 212.317 211.591C212.924 210.359 213.227 208.991 213.227 207.488C213.227 206.129 213.01 205.024 212.575 204.173C211.886 202.833 210.7 202.162 209.015 202.162C207.521 202.162 206.434 202.733 205.755 203.874C205.076 205.015 204.736 206.392 204.736 208.004C204.736 209.553 205.076 210.843 205.755 211.876C206.434 212.908 207.512 213.425 208.988 213.425ZM209.083 200.029C210.958 200.029 212.543 200.654 213.838 201.904C215.133 203.154 215.781 204.993 215.781 207.42C215.781 209.766 215.21 211.704 214.069 213.234C212.928 214.765 211.157 215.53 208.757 215.53C206.756 215.53 205.166 214.856 203.989 213.506C202.812 212.148 202.223 210.327 202.223 208.045C202.223 205.599 202.843 203.652 204.084 202.203C205.325 200.754 206.991 200.029 209.083 200.029Z" fill="#3F412F"/>
<path d="M218.424 200.451H220.842V202.516C221.421 201.8 221.947 201.279 222.418 200.953C223.224 200.401 224.138 200.125 225.162 200.125C226.321 200.125 227.254 200.41 227.96 200.98C228.359 201.306 228.721 201.786 229.047 202.42C229.591 201.642 230.229 201.066 230.963 200.695C231.696 200.315 232.521 200.125 233.435 200.125C235.392 200.125 236.723 200.831 237.429 202.244C237.81 203.005 238 204.028 238 205.314V215H235.46V204.893C235.46 203.924 235.215 203.258 234.726 202.896C234.246 202.534 233.657 202.353 232.96 202.353C232 202.353 231.171 202.674 230.474 203.317C229.785 203.96 229.441 205.033 229.441 206.537V215H226.955V205.504C226.955 204.517 226.837 203.797 226.602 203.344C226.231 202.665 225.538 202.325 224.523 202.325C223.6 202.325 222.757 202.683 221.997 203.399C221.245 204.114 220.869 205.409 220.869 207.284V215H218.424V200.451Z" fill="#3F412F"/>
</svg>
