<svg width="195" height="46" viewBox="0 0 195 46" fill="none" xmlns="http://www.w3.org/2000/svg">
<path d="M43.5023 21.5752C44.4933 32.8492 34.2551 44.2376 22.848 44.2376C11.4409 44.2376 0.420239 32.3341 2.19359 21.5752C3.39322 8.41259 11.4409 0 22.848 0C34.2551 0 43.5023 9.059 43.5023 21.5752Z" fill="#CFE48F"/>
<path d="M45.2753 16.4945C38.4135 15.0733 26.4921 18.6581 26.4921 18.6581L25.8067 12.707C25.8067 12.707 39.1098 13.3171 45.2753 16.4945Z" fill="#FF7733"/>
<path fill-rule="evenodd" clip-rule="evenodd" d="M0 25.4071C1.46711 24.4038 3.10381 23.4117 4.9222 22.4367C4.9222 11.7233 10.6763 5.99712 19.912 7.29012C26.9312 8.76784 28.7504 12.9047 28.7504 28.717C28.7504 35.6029 27.95 41.3956 25.8377 45.9742C25.4789 45.9915 25.1189 46.0002 24.7579 46.0002C12.7188 46.0002 1.04098 35.8508 0 25.4071Z" fill="#F85A3E"/>
<circle cx="18.5974" cy="16.8084" r="2.21658" fill="#96A13A"/>
<path d="M58.8193 10.6187H61.8199V21.6928L72.894 10.6187H77.1473L67.6972 19.7749L77.4103 33.3392H73.4044L65.4545 21.9403L61.8199 25.4203V33.3392H58.8193V10.6187Z" fill="#3F412F"/>
<path d="M77.0415 16.8517H79.8719V33.3392H77.0415V16.8517ZM77.0415 10.6187H79.8719V13.7739H77.0415V10.6187Z" fill="#3F412F"/>
<path d="M82.844 16.7744L86.0302 29.8283L89.2627 16.7744H92.387L95.635 29.7509L99.0222 16.7744H101.806L96.996 33.3392H94.1038L90.732 20.5173L87.4686 33.3392H84.5763L79.7971 16.7744H82.844Z" fill="#3F412F"/>
<path d="M101.917 16.8517H104.747V33.3392H101.917V16.8517ZM101.917 10.6187H104.747V13.7739H101.917V10.6187Z" fill="#3F412F"/>
<path d="M127.594 33.2773L126.047 35.1488L122.536 32.4731C121.691 32.9371 120.773 33.3083 119.783 33.5867C118.804 33.8651 117.731 34.0043 116.566 34.0043C113.04 34.0043 110.277 32.8494 108.276 30.5397C106.513 28.2919 105.631 25.477 105.631 22.0949C105.631 19.0222 106.394 16.3929 107.92 14.2069C109.88 11.4023 112.777 10 116.613 10C120.624 10 123.593 11.2889 125.522 13.8667C127.027 15.8773 127.78 18.45 127.78 21.5845C127.78 23.0487 127.599 24.4562 127.238 25.8069C126.692 27.8692 125.769 29.5499 124.47 30.8491L127.594 33.2773ZM116.938 31.2512C117.577 31.2512 118.175 31.21 118.732 31.1275C119.288 31.0347 119.773 30.8594 120.186 30.6016L117.695 28.6528L119.242 26.7504L122.212 29.0549C123.15 27.9826 123.784 26.7813 124.114 25.4512C124.454 24.1211 124.624 22.8476 124.624 21.6309C124.624 18.9604 123.923 16.8105 122.521 15.1813C121.129 13.5522 119.221 12.7376 116.798 12.7376C114.344 12.7376 112.401 13.5212 110.967 15.0885C109.534 16.6455 108.818 19.048 108.818 22.296C108.818 25.0284 109.503 27.2041 110.875 28.8229C112.256 30.4418 114.277 31.2512 116.938 31.2512Z" fill="#3F412F"/>
<path d="M131.339 16.7744V27.7712C131.339 28.6167 131.473 29.3076 131.742 29.8437C132.237 30.8336 133.159 31.3285 134.51 31.3285C136.449 31.3285 137.768 30.4624 138.47 28.7301C138.851 27.8021 139.042 26.5287 139.042 24.9099V16.7744H141.826V33.3392H139.197L139.227 30.8955C138.867 31.5244 138.418 32.0555 137.882 32.4885C136.82 33.3547 135.531 33.7877 134.015 33.7877C131.654 33.7877 130.045 32.9989 129.19 31.4213C128.726 30.5758 128.494 29.4468 128.494 28.0341V16.7744H131.339Z" fill="#3F412F"/>
<path d="M143.653 16.8517H146.484V33.3392H143.653V16.8517ZM143.653 10.6187H146.484V13.7739H143.653V10.6187Z" fill="#3F412F"/>
<path d="M146.935 31.1429L156.756 19.2645H147.662V16.7744H160.499V19.048L150.74 30.8491H160.793V33.3392H146.935V31.1429Z" fill="#3F412F"/>
<path d="M162.141 29.9675H165.374V33.3392H162.141V29.9675Z" fill="#3F412F"/>
<path d="M169.931 24.8171C170.864 24.8171 171.622 25.0439 172.205 25.4976C172.792 25.9513 173.145 26.7324 173.264 27.8408H171.911C171.828 27.3304 171.64 26.9076 171.346 26.5725C171.052 26.2323 170.581 26.0621 169.931 26.0621C169.044 26.0621 168.41 26.4952 168.029 27.3613C167.781 27.9233 167.657 28.6167 167.657 29.4416C167.657 30.2716 167.833 30.9702 168.183 31.5373C168.534 32.1044 169.085 32.388 169.838 32.388C170.416 32.388 170.872 32.2127 171.207 31.8621C171.547 31.5064 171.782 31.0218 171.911 30.4083H173.264C173.109 31.5064 172.723 32.3107 172.104 32.8211C171.485 33.3263 170.694 33.5789 169.73 33.5789C168.647 33.5789 167.784 33.1845 167.139 32.3957C166.495 31.6018 166.173 30.6119 166.173 29.4261C166.173 27.9723 166.526 26.8406 167.232 26.0312C167.938 25.2218 168.838 24.8171 169.931 24.8171Z" fill="#3F412F"/>
<path d="M177.784 32.4421C178.707 32.4421 179.339 32.0941 179.679 31.3981C180.024 30.697 180.197 29.9185 180.197 29.0627C180.197 28.2893 180.073 27.6604 179.826 27.1757C179.434 26.4127 178.759 26.0312 177.8 26.0312C176.949 26.0312 176.33 26.356 175.944 27.0056C175.557 27.6552 175.364 28.4388 175.364 29.3565C175.364 30.2381 175.557 30.9728 175.944 31.5605C176.33 32.1483 176.944 32.4421 177.784 32.4421ZM177.838 24.8171C178.906 24.8171 179.808 25.1728 180.545 25.8843C181.282 26.5957 181.651 27.6423 181.651 29.024C181.651 30.3593 181.326 31.4626 180.677 32.3339C180.027 33.2052 179.019 33.6408 177.653 33.6408C176.513 33.6408 175.609 33.2567 174.938 32.4885C174.268 31.7152 173.933 30.6789 173.933 29.3797C173.933 27.9877 174.286 26.8793 174.993 26.0544C175.699 25.2295 176.648 24.8171 177.838 24.8171Z" fill="#3F412F"/>
<path d="M183.155 25.0568H184.532V26.2323C184.862 25.825 185.161 25.5285 185.429 25.3429C185.888 25.0284 186.408 24.8712 186.991 24.8712C187.651 24.8712 188.182 25.0336 188.584 25.3584C188.811 25.544 189.017 25.8172 189.203 26.1781C189.512 25.7348 189.876 25.4074 190.293 25.196C190.711 24.9795 191.18 24.8712 191.701 24.8712C192.814 24.8712 193.572 25.2733 193.974 26.0776C194.191 26.5107 194.299 27.0932 194.299 27.8253V33.3392H192.853V27.5856C192.853 27.034 192.714 26.655 192.435 26.4488C192.162 26.2426 191.827 26.1395 191.43 26.1395C190.883 26.1395 190.412 26.3225 190.015 26.6885C189.623 27.0546 189.427 27.6655 189.427 28.5213V33.3392H188.012V27.9336C188.012 27.3716 187.945 26.9618 187.811 26.704C187.599 26.3173 187.205 26.124 186.628 26.124C186.102 26.124 185.622 26.3276 185.189 26.7349C184.761 27.1422 184.547 27.8795 184.547 28.9467V33.3392H183.155V25.0568Z" fill="#3F412F"/>
</svg>
